<?xml version="1.0" standalone="no"?>
<!DOCTYPE svg PUBLIC "-//W3C//DTD SVG 1.0//EN" "http://www.w3.org/TR/2001/REC-SVG-20010904/DTD/svg10.dtd">
<svg id="0" xmlns="http://www.w3.org/2000/svg" xmlns:xlink="http://www.w3.org/1999/xlink" width="399.9999" height="399.9999" viewBox="0 0 399.9999 399.9999" xmlns:inkscape ="http://www.inkscape.org/namespaces/inkscape" >
<desc>CopyRight:SVG Design Editor;
configurationStart;Unit=smInches;Dpi=96;Division=4;Grid=True;Zoom=2;CanvasW=399.9999;CanvasH=399.9999;configurationEnd;</desc>
<g isVisble = "True" inkscape:label = "splash Default Layer" inkscape:groupmode = "layer" ><g id="group_1">
<path style="fill:#000000;stroke:none; stroke-width:1" d="m137.54,31.62c-86.1,18.28 -84.06,17.77 -88.21,22.19c-5.9,6.28 -5.62,8.11 17.91,117.31c24.75,114.83 23.62,111.14 34.58,113.2c3.58,0.67 80.95,-14.22 96.42,-18.55c4.18,-1.17 3.49,-12.27 -0.7,-11.3c-45.19,10.43 -94.03,19.47 -95.7,17.71c-3.77,-3.98 -46.6,-209.09 -44.04,-210.96c4.13,-3.02 161.01,-35.23 162.82,-33.43c0.88,0.89 6.53,24.52 12.55,52.53c6.01,28.01 11.14,51.87 11.39,53.03c0.25,1.16 2.22,-1.68 4.37,-6.31l3.91,-8.42l-9.4,-44.21c-14.85,-69.87 -2.23,-64.78 -105.89,-42.76m171.68,3.49c-3.23,1.64 -6.85,4.49 -8.06,6.32c-5.52,8.42 -53.22,114.12 -53.51,118.57c-0.18,2.71 -8,21.87 -17.49,42.81l-17.17,37.89l-1.41,22.81c-2.1,34.1 0.13,35.04 22.48,9.52l15.32,-17.5l17.35,-38.64c10.07,-22.42 18.28,-38.94 19.56,-39.34c1.29,-0.41 11.95,-21.96 25.51,-51.53c12.82,-27.95 24,-51.06 24.86,-51.35c4.47,-1.49 2.33,5.88 -8.17,28.02c-11.73,24.76 -12.38,27.12 -8.16,29.78c4.33,2.73 6.77,-0.64 18.8,-25.89c13.36,-28.04 13.92,-31.13 7.05,-38.86c-4.03,-4.53 -4.6,-6.06 -4.09,-10.98c1.8,-17.39 -16.98,-29.73 -32.89,-21.63m18.56,11.85c1.9,1.89 3.45,4.86 3.45,6.58c0,3.25 -39.04,89.62 -40.51,89.62c-2.58,0 -19.84,-7.68 -19.84,-8.83c0,-3.79 38.43,-84.86 41.55,-87.66c4.69,-4.21 10.98,-4.09 15.36,0.29m-186.43,12.62c-72.92,15.54 -66.75,10.77 -59.26,45.88c5.51,25.83 7.22,30.15 12.42,31.46c4.1,1.03 117.01,-22.64 121.25,-25.42c5.09,-3.33 5.06,-7.44 -0.26,-32.17c-8.13,-37.79 0.14,-35.58 -74.15,-19.75m62.96,21.22c2.48,11.53 4.21,21.27 3.86,21.64c-0.85,0.89 -109.09,23.69 -109.73,23.11c-0.54,-0.49 -8.04,-34.32 -8.84,-39.86c-0.49,-3.43 -0.42,-3.46 53.54,-14.95c29.72,-6.33 54.62,-11.38 55.35,-11.21c0.72,0.17 3.34,9.74 5.81,21.27m-20.81,-2.34c-3.21,3.25 -3.1,5.32 0.35,7.17c3.46,1.85 3.65,5.19 0.35,6.05c-1.85,0.48 -1.68,0.68 0.7,0.81c1.74,0.09 3.16,0.79 3.16,1.57c0,0.77 0.63,1.4 1.4,1.4c0.77,0 1.4,-0.95 1.4,-2.11c0,-1.16 0.63,-2.11 1.4,-2.11c2.62,0 1.42,-5.42 -1.4,-6.32c-3.41,-1.08 -3.75,-4.91 -0.43,-4.91c2.07,0 2.02,-0.26 -0.35,-2.06c-3.39,-2.56 -3.57,-2.55 -6.58,0.51m-16.84,3.62c-3.19,4.38 -3.12,4.77 1.05,6.36c4.4,1.67 4.63,5.56 0.35,5.78c-2.86,0.15 -2.89,0.23 -0.35,0.85c1.54,0.38 3.6,1.33 4.56,2.11c1.23,1 1.75,0.89 1.75,-0.35c0,-0.97 1.1,-2.61 2.46,-3.63c2.28,-1.73 2.16,-2.1 -1.66,-5.21c-3.92,-3.19 -3.98,-3.42 -1.4,-4.92c2.42,-1.4 2.45,-1.58 0.25,-1.61c-1.35,-0.02 -2.46,-0.67 -2.46,-1.45c0,-2.38 -1.99,-1.48 -4.56,2.06m-15.48,2.19c-3.17,3.01 -3.05,5.13 0.39,6.97c3.46,1.85 3.69,5.61 0.35,5.62c-1.65,0.01 -1.13,0.7 1.56,2.11c4.96,2.59 5.1,2.59 5.1,-0.01c0,-1.16 0.63,-2.1 1.4,-2.1c2.62,0 1.42,-5.42 -1.4,-6.32c-3.27,-1.04 -3.76,-4.5 -0.72,-5.16c1.48,-0.32 1.16,-0.88 -1.09,-1.93c-2.48,-1.15 -3.71,-0.97 -5.6,0.82m-16.98,3.66c-2.64,3.62 -2.64,3.62 1.4,6.87l4.04,3.25l-3.51,1.42c-3.28,1.32 -3.31,1.42 -0.47,1.51c1.67,0.05 3.32,0.88 3.66,1.84c0.4,1.15 1.64,0.54 3.58,-1.75c3.79,-4.49 3.77,-4.82 -0.57,-7.67c-3.45,-2.26 -3.5,-2.47 -1.05,-4.33c2.39,-1.82 2.4,-1.95 0.12,-2c-1.35,-0.02 -2.46,-0.68 -2.46,-1.45c0,-2.43 -2.01,-1.45 -4.74,2.3m-95.61,18.77c-1.54,0.59 -4.39,2.78 -6.32,4.85l-3.51,3.78l-0.38,96.03l-0.38,96.03l-5.41,0c-13.32,0 -9.86,20.4 5.03,29.65l5.36,3.33l160.7,0l160.7,0l5.36,-3.33c14.9,-9.26 18.34,-29.65 5,-29.65l-5.44,0l0,-11.23l0,-11.23l-5.61,0l-5.61,0l0,11.23l0,11.23l-154.39,0l-154.39,0l0,-93.57c0,-84.07 0.23,-93.83 2.26,-96.07c3.4,-3.76 1.03,-12.57 -2.96,-11.04m310.66,5.06c-1.48,3.17 -1.8,12.97 -1.48,45.1l0.41,41.05l5.61,0l5.61,0l-0.41,-41.37l-0.41,-41.37l-3.73,-3.73l-3.73,-3.72l-1.89,4.05m-153.02,16.59c-20.85,4.76 -21.1,5.29 -15.28,32.63c5.67,26.6 6.68,27.23 33.78,21.04l13.33,-3.05l3.1,-6.32l3.1,-6.32l-3.99,-18.17c-5.57,-25.38 -6.72,-26.05 -34.04,-19.81m-50.76,10.65c-12.38,2.81 -13.98,3.84 -13.31,8.58c1.06,7.49 33.45,1.7 33.45,-5.97c0,-5.38 -5.04,-6.03 -20.15,-2.6m71.34,0.32c4.36,19.13 6.04,28.57 5.23,29.28c-1.25,1.09 -25.63,5.83 -26.34,5.12c-0.29,-0.29 -2.06,-7.6 -3.93,-16.25l-3.4,-15.72l3.01,-0.68c1.66,-0.38 6.8,-1.56 11.44,-2.64c11.96,-2.78 13.18,-2.71 14,0.89m-114.17,8.73c-9.59,2.32 -12.72,6.57 -7.83,10.63c4.39,3.64 25.9,-2.04 25.9,-6.84c0,-5.96 -4.87,-6.97 -18.06,-3.78m172.56,1.57c11.18,4.5 11.17,4.5 8.83,10.05c-2.33,5.52 -3.08,5.57 -14.2,0.85c-9.59,-4.07 -9.76,-4.34 -6.63,-10.39c2.56,-4.96 1.11,-4.9 12,-0.51m-126.3,11.64c-11.71,2.66 -15.47,6.47 -10.9,11.04c4.19,4.19 31.83,-2.61 31.83,-7.84c0,-6.27 -4.47,-6.95 -20.93,-3.21m-39.42,8.45c-11.12,2.37 -14.72,6.72 -9.29,11.23c4.74,3.94 24.73,-2.19 24.73,-7.58c0,-5.29 -3.65,-6.16 -15.44,-3.65m159.51,2.77l4.42,2.28l-16.6,36.84c-9.13,20.26 -17.75,38.3 -19.16,40.09c-1.41,1.79 -5.32,6.37 -8.7,10.18l-6.13,6.93l0.61,-12.63c0.59,-12.06 15.26,-49.46 32.94,-83.93c2.19,-4.27 3.89,-4.24 12.61,0.25m-111.16,9.96c-15.03,3.09 -16.07,3.58 -16.07,7.54c0,6.27 2.7,6.88 16.74,3.82c15.19,-3.32 15.54,-3.49 15.54,-7.85c0,-5.3 -3.66,-6.09 -16.21,-3.51m-45.54,9.6c-9.94,2.57 -13.5,8.01 -7.39,11.29c3.84,2.06 22.55,-2.28 24.35,-5.65c3.96,-7.39 -2.24,-9.45 -16.97,-5.64m50.77,12.09c-52.91,11.33 -56.9,12.57 -56.03,17.48c0.97,5.4 4.19,5.06 57.72,-6.16l52.71,-11.05l2.15,-5.39c1.18,-2.96 2.15,-5.69 2.15,-6.06c0,-1.28 -5.14,-0.3 -58.71,11.17m123.91,8.45l-3.45,3.45l0,34.17c0,42.96 -0.3,42.48 18.92,30.49l11.21,-6.99l26.4,0c35.48,0 33.29,2.12 33.29,-32.28c0,-25.09 -0.04,-25.43 -3.45,-28.84l-3.45,-3.44l-38.02,0l-38.02,0l-3.44,3.44m-125.55,14.91c-53.17,11.32 -49.12,10.13 -49.12,14.41c0,7.4 1.15,7.34 48.98,-2.74c43.31,-9.12 45,-9.6 46.26,-13.08c0.72,-1.99 1.76,-4.72 2.31,-6.07c1.32,-3.26 3.91,-3.66 -48.43,7.48m200.7,13.93l0,21.05l-25.7,0l-25.7,0l-7.99,4.81l-7.99,4.81l0,-25.86l0,-25.86l33.68,0l33.68,0l0,21.05m-1.4,78.33c0,0.63 -1.94,3 -4.3,5.26l-4.3,4.12l-158.41,0l-158.41,0l-4.3,-4.12c-2.37,-2.27 -4.3,-4.64 -4.3,-5.26c0,-0.63 75.16,-1.14 167.02,-1.14c91.86,0 167.02,0.51 167.02,1.14" id = "2" fill-rule = "evenodd" transform = "matrix(0.8815979,0,0,0.8815978,27.86445,39.7869)" vector-effect="non-scaling-stroke" pen = "0.8815893,0.8815889" />
</g>
</g>
</svg>
